<svg xmlns="http://www.w3.org/2000/svg" viewBox="0 0 263.03 300.6">
    <path fill="#000000"
          d="M263,65.76V93.94H0V65.76A28.18,28.18,0,0,1,28.18,37.58H56.36V9.39A9.43,9.43,0,0,1,65.76,0H84.54a9.43,9.43,0,0,1,9.4,9.39V37.58h75.15V9.39A9.42,9.42,0,0,1,178.48,0h18.79a9.42,9.42,0,0,1,9.39,9.39V37.58h28.18A28.19,28.19,0,0,1,263,65.76Zm-263,47H263V272.42a28.19,28.19,0,0,1-28.19,28.18H28.18A28.18,28.18,0,0,1,0,272.42Zm37.58,68.1a7.06,7.06,0,0,0,7,7H68.11a7.07,7.07,0,0,0,7-7V157.35a7.07,7.07,0,0,0-7-7H44.62a7.06,7.06,0,0,0-7,7Zm0,75.15a7.06,7.06,0,0,0,7,7H68.11a7.07,7.07,0,0,0,7-7V232.5a7.07,7.07,0,0,0-7-7.05H44.62a7.06,7.06,0,0,0-7,7.05Zm75.15-75.15a7.06,7.06,0,0,0,7,7h23.49a7.07,7.07,0,0,0,7-7V157.35a7.07,7.07,0,0,0-7-7H119.77a7.06,7.06,0,0,0-7,7Zm0,75.15a7.06,7.06,0,0,0,7,7h23.49a7.07,7.07,0,0,0,7-7V232.5a7.07,7.07,0,0,0-7-7.05H119.77a7.06,7.06,0,0,0-7,7.05Zm75.15-75.15a7.06,7.06,0,0,0,7,7h23.49a7.07,7.07,0,0,0,7-7V157.35a7.07,7.07,0,0,0-7-7H194.92a7.06,7.06,0,0,0-7,7Zm0,75.15a7.06,7.06,0,0,0,7,7h23.49a7.07,7.07,0,0,0,7-7V232.5a7.07,7.07,0,0,0-7-7.05H194.92a7.06,7.06,0,0,0-7,7.05Z"/>
</svg>
