<svg width="17" height="35" viewBox="0 0 17 35" fill="none" xmlns="http://www.w3.org/2000/svg">
<mask id="path-1-inside-1_32_5129" fill="white">
<path d="M13.8963 5.88565H17V0.479651C16.4645 0.405984 14.623 0.240234 12.4784 0.240234C8.0035 0.240234 4.93809 3.05515 4.93809 8.22882V12.9902H0V19.0337H4.93809V34.2402H10.9924V19.0352H15.7308L16.483 12.9917H10.991V8.82807C10.9924 7.08132 11.4627 5.88565 13.8963 5.88565Z"/>
</mask>
<path d="M13.8963 5.88565H17V0.479651C16.4645 0.405984 14.623 0.240234 12.4784 0.240234C8.0035 0.240234 4.93809 3.05515 4.93809 8.22882V12.9902H0V19.0337H4.93809V34.2402H10.9924V19.0352H15.7308L16.483 12.9917H10.991V8.82807C10.9924 7.08132 11.4627 5.88565 13.8963 5.88565Z" fill="black"/>
<path d="M17 5.88565V27.219H38.3333V5.88565H17ZM17 0.479651H38.3333V-18.1196L19.9076 -20.6546L17 0.479651ZM4.93809 12.9902V34.3236H26.2714V12.9902H4.93809ZM0 12.9902V-8.3431H-21.3333V12.9902H0ZM0 19.0337H-21.3333V40.3671H0V19.0337ZM4.93809 19.0337H26.2714V-2.2996H4.93809V19.0337ZM4.93809 34.2402H-16.3952V55.5736H4.93809V34.2402ZM10.9924 34.2402V55.5736H32.3258V34.2402H10.9924ZM10.9924 19.0352V-2.29818H-10.3409V19.0352H10.9924ZM15.7308 19.0352V40.3685H34.5735L36.9008 21.67L15.7308 19.0352ZM16.483 12.9917L37.653 15.6265L40.6361 -8.34168H16.483V12.9917ZM10.991 12.9917H-10.3423V34.325H10.991V12.9917ZM10.991 8.82807L-10.3423 8.81077L-10.3423 8.81942V8.82807H10.991ZM13.8963 27.219H17V-15.4477H13.8963V27.219ZM38.3333 5.88565V0.479651H-4.33333V5.88565H38.3333ZM19.9076 -20.6546C18.2785 -20.8787 15.4549 -21.0931 12.4784 -21.0931V21.5736C13.0229 21.5736 13.5606 21.5954 13.987 21.6225C14.1944 21.6357 14.3419 21.6481 14.4144 21.6548C14.4503 21.6581 14.4509 21.6584 14.4181 21.6548C14.3997 21.6528 14.2805 21.6398 14.0924 21.6139L19.9076 -20.6546ZM12.4784 -21.0931C5.72629 -21.0931 -2.08029 -18.8778 -8.19351 -12.6505C-14.296 -6.43421 -16.3952 1.41505 -16.3952 8.22882H26.2714C26.2714 9.86892 25.7049 13.7239 22.2538 17.2393C18.792 20.7657 14.7556 21.5736 12.4784 21.5736V-21.0931ZM-16.3952 8.22882V12.9902H26.2714V8.22882H-16.3952ZM4.93809 -8.3431H0V34.3236H4.93809V-8.3431ZM-21.3333 12.9902V19.0337H21.3333V12.9902H-21.3333ZM0 40.3671H4.93809V-2.2996H0V40.3671ZM-16.3952 19.0337V34.2402H26.2714V19.0337H-16.3952ZM4.93809 55.5736H10.9924V12.9069H4.93809V55.5736ZM32.3258 34.2402V19.0352H-10.3409V34.2402H32.3258ZM10.9924 40.3685H15.7308V-2.29818H10.9924V40.3685ZM36.9008 21.67L37.653 15.6265L-4.68703 10.3568L-5.43922 16.4003L36.9008 21.67ZM16.483 -8.34168H10.991V34.325H16.483V-8.34168ZM32.3243 12.9917V8.82807H-10.3423V12.9917H32.3243ZM32.3243 8.84537C32.324 9.22112 32.3131 10.5911 31.8934 12.4152C31.4489 14.3468 30.4331 17.2806 28.0624 20.1868C22.7021 26.7578 15.7273 27.219 13.8963 27.219V-15.4477C9.63175 -15.4477 1.20496 -14.3886 -4.9992 -6.78313C-10.3765 -0.191317 -10.3409 7.10894 -10.3423 8.81077L32.3243 8.84537Z" fill="#141414" mask="url(#path-1-inside-1_32_5129)"/>
</svg>
