<svg width="29" height="32" viewBox="0 0 404 367" fill="none" xmlns="http://www.w3.org/2000/svg">
<g clip-path="url(#clip0_275_10)">
<mask id="mask0_275_10" style="mask-type:luminance" maskUnits="userSpaceOnUse" x="0" y="0" width="29" height="32">
<path d="M404 0H0V367H404V0Z" fill="white"/>
</mask>
<g mask="url(#mask0_275_10)">
<path d="M0 180.781C0.25237 180.15 0.382093 179.501 0.429265 178.819C0.967026 170.935 2.92938 163.412 6.40832 156.323C12.7034 143.489 22.2675 133.855 35.037 127.446C40.634 124.637 46.5541 122.803 52.743 121.833C56.0663 121.311 59.4084 121.037 62.7671 121.066C77.0083 121.193 89.8226 125.537 101.021 134.37C111.616 142.729 118.817 153.431 122.539 166.436C123.527 169.889 124.169 173.409 124.539 176.983C124.947 180.901 124.996 184.82 124.659 188.738C124.022 196.138 122.164 203.218 119.006 209.948C111.722 225.464 97.8253 238.031 80.5132 243.194C76.9659 244.251 73.3548 244.978 69.6754 245.403C65.2743 245.911 60.8661 245.977 56.4673 245.521C42.1718 244.043 29.7891 238.359 19.3971 228.412C12.2718 221.59 7.05693 213.514 3.76669 204.202C2.19114 199.738 1.13685 195.152 0.643898 190.44C0.554271 189.576 0.476437 188.712 0.415114 187.848C0.375017 187.277 0.299542 186.722 0.0023586 186.219V180.783L0 180.781Z" fill="black"/>
<path d="M129.235 367C128.912 366.929 128.591 366.832 128.263 366.79C126.468 366.568 124.664 366.398 122.876 366.138C116.864 365.267 111.109 363.506 105.654 360.846C90.1009 353.262 79.315 341.357 73.4822 325.018C71.9798 320.809 70.9939 316.472 70.4467 312.039C69.8618 307.302 69.7934 302.557 70.3358 297.805C71.9609 283.543 77.7631 271.232 87.7022 260.917C96.1153 252.185 106.328 246.555 118.105 243.744C123.006 242.573 127.98 241.995 133.016 242.087C149.257 242.382 163.333 248.137 175.185 259.201C184.11 267.531 189.884 277.766 192.832 289.607C194.302 295.508 194.891 301.502 194.589 307.573C194.184 315.696 192.283 323.462 188.799 330.815C182.586 343.926 173.048 353.821 160.071 360.336C154.682 363.041 148.993 364.864 143.052 365.914C140.745 366.323 138.422 366.544 136.098 366.797C135.771 366.832 135.447 366.932 135.122 367H129.237H129.235Z" fill="black"/>
<path d="M404 186.446C403.941 186.776 403.837 187.107 403.832 187.44C403.731 193.315 402.446 198.964 400.493 204.466C394.089 222.508 379.619 236.688 361.479 242.745C357.682 244.013 353.79 244.879 349.816 245.398C347.155 245.745 344.483 245.939 341.808 245.913C324.902 245.75 310.302 239.863 298.144 228.065C291.94 222.048 287.235 214.999 283.985 206.983C282.148 202.453 280.893 197.77 280.152 192.935C279.468 188.474 279.277 183.989 279.584 179.499C280.534 165.52 285.558 153.176 294.759 142.601C302.599 133.588 312.246 127.305 323.687 123.82C327.192 122.754 330.768 122.036 334.407 121.597C337.976 121.165 341.556 121.037 345.134 121.255C360.444 122.18 373.725 127.878 384.834 138.475C393.568 146.805 399.382 156.878 402.295 168.612C402.96 171.289 403.424 174.003 403.715 176.744C403.809 177.643 403.776 178.555 403.828 179.459C403.854 179.903 403.941 180.342 404.002 180.781V186.444L404 186.446Z" fill="black"/>
<path d="M268.881 367C268.517 366.927 268.154 366.823 267.786 366.788C264.595 366.478 261.416 366.091 258.288 365.369C247.089 362.784 237.24 357.636 228.926 349.674C219.586 340.729 213.593 329.89 210.911 317.228C209.897 312.443 209.43 307.597 209.64 302.715C210.335 286.38 216.248 272.245 227.732 260.565C235.971 252.185 245.901 246.704 257.288 243.866C260.364 243.099 263.491 242.622 266.654 242.349C269.593 242.094 272.534 242.063 275.471 242.233C281.067 242.554 286.528 243.635 291.846 245.42C310.392 251.647 324.881 266.226 331.077 284.907C332.494 289.182 333.424 293.566 333.886 298.051C334.28 301.856 334.358 305.666 334.016 309.471C332.702 324.118 327.129 336.901 316.994 347.577C308.121 356.928 297.285 362.862 284.695 365.591C281.928 366.19 279.117 366.502 276.303 366.785C275.938 366.823 275.577 366.929 275.216 367.002H268.878L268.881 367Z" fill="black"/>
<path d="M135.119 0C135.445 0.063735 135.77 0.16996 136.101 0.188844C143.327 0.573615 150.255 2.25669 156.903 5.07991C175.751 13.0822 188.563 29.4573 193.007 47.8484C194.471 53.9103 195.025 60.069 194.582 66.2796C193.474 81.8286 187.561 95.2885 176.607 106.4C168.137 114.992 157.934 120.582 146.165 123.275C140.992 124.46 135.747 125.01 130.449 124.777C114.602 124.078 100.792 118.412 89.2776 107.445C80.2088 98.8081 74.3807 88.2682 71.5881 76.0594C70.2932 70.3941 69.8569 64.6414 70.2225 58.8486C71.9584 31.3482 90.8815 8.60894 117.331 1.89316C120.991 0.963106 124.706 0.351723 128.489 0.188844C128.817 0.174681 129.14 0.0660955 129.466 0C131.353 0 133.237 0 135.124 0H135.119Z" fill="black"/>
<path d="M209.713 62.3965C209.925 45.9104 215.548 31.5512 226.86 19.5407C235.671 10.1858 246.486 4.28676 259.029 1.52963C264.746 0.271457 270.534 -0.0991502 276.348 0.290341C287.214 1.02211 297.254 4.37646 306.309 10.4407C320.489 19.9349 329.324 33.1162 332.976 49.7841C334.129 55.0505 334.556 60.39 334.233 65.765C333.284 81.5548 327.305 95.1586 316.22 106.44C307.894 114.914 297.844 120.398 286.32 123.183C280.454 124.599 274.489 125.14 268.47 124.769C254.295 123.894 241.771 118.833 231.058 109.499C220.489 100.293 213.894 88.7025 210.991 75.0042C210.114 70.8591 209.677 66.6573 209.713 62.3989V62.3965Z" fill="black"/>
</g>
</g>
<defs>
<clipPath id="clip0_275_10">
<rect width="29" height="32" fill="white"/>
</clipPath>
</defs>
</svg>
