<svg width="20" height="20" viewBox="0 0 20 20" fill="#000000" xmlns="http://www.w3.org/2000/svg">
    <path d="M13.55 1H6.46C3.45 1 1 3.44 1 6.44V13.56C1 16.56 3.45 19 6.46 19H13.54C16.56 19 19 16.56 19 13.56V6.44C19.01 3.44 16.56 1 13.55 1ZM17.5 14C17.5 15.93 15.93 17.5 14 17.5H6C4.07 17.5 2.5 15.93 2.5 14V6C2.5 4.07 4.07 2.5 6 2.5H14C15.93 2.5 17.5 4.07 17.5 6V14Z" fill="#000000"/>
    <path d="M14.87 6.34992C15.472 6.34992 15.96 5.86191 15.96 5.25992C15.96 4.65793 15.472 4.16992 14.87 4.16992C14.268 4.16992 13.78 4.65793 13.78 5.25992C13.78 5.86191 14.268 6.34992 14.87 6.34992Z" fill="#000000"/>
    <path d="M10.0299 5.4502C7.4799 5.4502 5.3999 7.5102 5.3999 10.0502C5.3999 12.6002 7.4699 14.6602 10.0299 14.6602C12.5899 14.6602 14.6599 12.5992 14.6599 10.0502C14.6499 7.5102 12.5799 5.4502 10.0299 5.4502ZM10.0799 13.0002C8.4199 13.0002 7.0799 11.6602 7.0799 10.0102C7.0799 8.3602 8.4199 7.0202 10.0799 7.0202C11.7399 7.0202 13.0799 8.3602 13.0799 10.0102C13.0799 11.6602 11.7399 13.0002 10.0799 13.0002Z" fill="#000000"/>
</svg>
