<svg width="91" height="24" viewBox="0 0 91 24" fill="none" xmlns="http://www.w3.org/2000/svg">
    <path d="M35.2459 5.66909L29.1646 18.5461L28.4539 5.66909H24.9846L19.0444 18.8923C18.5938 14.8771 17.4251 11.6808 15.5623 9.38199C13.5565 6.9055 10.7723 5.59766 7.50638 5.59766C3.28244 5.59766 0.553179 7.71329 0.553179 10.9866C0.553179 13.3953 1.78043 14.6976 4.78811 15.4834L7.75916 16.2674C9.75207 16.7748 9.98286 17.5203 9.98286 18.035C9.98286 19.2055 8.72264 20.0554 6.98434 20.0554C4.81376 20.0554 3.46561 18.8446 3.46561 16.8939V16.5971H0V16.8939C0 20.6232 2.74208 23.032 6.98617 23.032C10.9702 23.032 13.6463 20.9584 13.6463 17.872C13.6463 15.3369 12.3678 14.0034 9.08715 13.115L6.41101 12.397C4.50786 11.8951 4.18548 11.4573 4.18548 10.6605C4.18548 9.39481 5.5153 8.57603 7.57415 8.57603C10.0671 8.57603 12.1388 9.81427 13.5657 12.1552C15.0622 14.6115 15.8535 18.2823 15.8535 22.7718V23.0686L20.2332 23.0759L25.8217 10.47L26.5599 23.1071H30.0182L38.9863 5.67276H35.2496L35.2459 5.66909Z" fill="#ffffff"/>
    <path d="M37.3781 23.1035H40.7557L44.1316 5.66919H40.7539L37.3781 23.1035Z" fill="#ffffff"/>
    <path d="M41.9573 0L41.1898 3.24764H44.6298L45.3973 0H41.9573Z" fill="#ffffff"/>
    <path d="M54.8911 8.70981L55.4589 5.67282H52.1032L53.3781 0.0292969H50.0023L48.7274 5.67282H45.8571L45.2892 8.70981H48.1559L45.7545 21.0263L47.3939 23.1035H52.0886L52.6546 20.0665H49.3025L51.5317 8.70981H54.8911Z" fill="#ffffff"/>
    <path d="M71.5322 17.0625C70.8966 19.2844 69.347 20.5098 67.1672 20.5098C64.3263 20.5098 62.5605 18.2311 62.5605 14.5658C62.5605 10.9006 64.3684 8.58895 67.1672 8.58895C69.303 8.58895 70.7794 9.80338 71.437 12.0985L71.4993 12.3147H74.8641L74.7854 11.9538C73.9171 8.01928 71.0706 5.66919 67.1691 5.66919C62.3443 5.66919 59.2267 9.16044 59.2267 14.5658C59.2267 19.9712 62.3443 23.4625 67.1691 23.4625C71.1219 23.4625 74.016 21.1252 74.9117 17.2127L74.9942 16.8482H71.5945L71.5322 17.0643V17.0625Z" fill="#ffffff"/>
    <path d="M84.7993 5.50248C83.1453 5.50248 80.9894 6.0868 79.7859 7.67124V0H76.4632V23.1035H79.7859V13.4192C79.7859 10.3401 81.5169 8.50284 84.4147 8.50284C86.3178 8.50284 87.4993 9.67147 87.4993 11.5545V23.1035H90.822V11.875C90.822 7.58698 88.8529 5.50248 84.803 5.50248" fill="#ffffff"/>
    <path d="M55.1439 20.0391L54.4203 23.1017H57.6643L58.3897 20.0391H55.1439Z" fill="#ffffff"/>
</svg>
