<svg width="404" height="367" viewBox="0 0 404 367" fill="none" xmlns="http://www.w3.org/2000/svg">
<path d="M54.2513 122.1C56.8931 121.755 59.5419 121.564 62.1893 121.589C78.9697 121.751 93.4459 127.589 105.511 139.296C111.663 145.264 116.33 152.254 119.554 160.207C121.376 164.698 122.621 169.345 123.356 174.143M54.2513 122.1C50.3065 122.615 46.4464 123.475 42.6818 124.731C24.6875 130.74 10.333 144.807 3.98096 162.703C2.04081 168.17 0.770173 173.763 0.669929 179.57M54.2513 122.1L54.1867 121.604M54.2513 122.1C54.2512 122.1 54.2514 122.1 54.2513 122.1ZM123.356 174.143L123.85 174.067M123.356 174.143C124.035 178.568 124.224 183.017 123.92 187.469V187.47C122.977 201.342 117.994 213.581 108.866 224.073C101.087 233.015 91.5208 239.247 80.1696 242.704C76.6958 243.761 73.1491 244.473 69.5355 244.909C65.995 245.338 62.4447 245.464 58.8988 245.249C43.705 244.33 30.5357 238.679 19.5136 228.166C10.8492 219.902 5.08331 209.913 2.19306 198.27C1.53388 195.617 1.07299 192.925 0.785132 190.206C0.740279 189.778 0.725242 189.343 0.715262 188.892C0.713317 188.804 0.711562 188.715 0.709792 188.625C0.702613 188.262 0.69522 187.887 0.673873 187.515C0.654068 187.177 0.599067 186.825 0.54898 186.506C0.531554 186.395 0.514724 186.288 0.500167 186.187L0.500168 180.614C0.515724 180.531 0.532417 180.456 0.550811 180.373C0.564941 180.309 0.580063 180.241 0.596428 180.161C0.632393 179.985 0.6669 179.783 0.669929 179.57M0.669929 179.57L0.169983 179.563" stroke="white"/>
<path d="M135.122 0.00236567C135.485 0.0755392 135.848 0.179413 136.216 0.214821C139.407 0.524049 142.587 0.911157 145.714 1.63349C156.913 4.2183 166.762 9.36667 175.077 17.3289C184.417 26.273 190.41 37.1126 193.092 49.7747C194.106 54.5595 194.573 59.4057 194.363 64.2873C193.667 80.6224 187.754 94.7574 176.27 106.437C168.031 114.817 158.102 120.299 146.714 123.136C143.639 123.903 140.511 124.38 137.348 124.654C134.41 124.909 131.468 124.939 128.532 124.769C122.935 124.448 117.475 123.367 112.156 121.583C93.6105 115.356 79.1216 100.777 72.9255 82.0954C71.508 77.8204 70.5787 73.4368 70.1164 68.9518C69.7226 65.1466 69.6447 61.3366 69.9867 57.5314C71.3004 42.8842 76.8738 30.1018 87.0087 19.425C95.8818 10.0749 106.717 4.14041 119.307 1.41161C122.074 0.812026 124.886 0.500419 127.699 0.217155C128.065 0.179382 128.426 0.0731811 128.787 0L135.124 5.54101e-07L135.122 0.00236567Z" fill="url(#paint0_linear_364_28)"/>
<path d="M247.294 361.462C253.893 364.264 260.763 365.933 267.928 366.314H267.93C268.137 366.326 268.333 366.365 268.504 366.403C268.575 366.419 268.637 366.434 268.696 366.448C268.779 366.468 268.855 366.486 268.934 366.502H268.945H268.956H268.967H268.978H268.989H269H269.011H269.022H269.033H269.044H269.055H269.066H269.077H269.088H269.099H269.111H269.122H269.133H269.144H269.155H269.166H269.177H269.188H269.199H269.21H269.221H269.232H269.243H269.254H269.265H269.276H269.287H269.298H269.309H269.321H269.332H269.343H269.354H269.365H269.376H269.387H269.398H269.409H269.42H269.431H269.442H269.453H269.464H269.475H269.486H269.497H269.508H269.52H269.531H269.542H269.553H269.564H269.575H269.586H269.597H269.608H269.619H269.63H269.641H269.652H269.663H269.674H269.685H269.696H269.707H269.718H269.73H269.741H269.752H269.763H269.774H269.785H269.796H269.807H269.818H269.829H269.84H269.851H269.862H269.873H269.884H269.895H269.906H269.917H269.928H269.939H269.951H269.962H269.973H269.984H269.995H270.006H270.017H270.028H270.039H270.05H270.061H270.072H270.083H270.094H270.105H270.116H270.127H270.138H270.149H270.161H270.172H270.183H270.194H270.205H270.216H270.227H270.238H270.249H270.26H270.271H270.282H270.293H270.304H270.315H270.326H270.337H270.348H270.359H270.37H270.382H270.393H270.404H270.415H270.426H270.437H270.448H270.459H270.47H270.481H270.492H270.503H270.514H270.525H270.536H270.547H270.558H270.569H270.58H270.591H270.603H270.614H270.625H270.636H270.647H270.658H270.669H270.68H270.691H270.702H270.713H270.724H270.735H270.746H270.757H270.768H270.779H270.79H270.801H270.812H270.824H270.835H270.846H270.857H270.868H270.879H270.89H270.901H270.912H270.923H270.934H270.945H270.956H270.967H270.978H270.989H271H271.011H271.022H271.033H271.045H271.056H271.067H271.078H271.089H271.1H271.111H271.122H271.133H271.144H271.155H271.166H271.177H271.188H271.199H271.21H271.221H271.232H271.243H271.254H271.266H271.277H271.288H271.299H271.31H271.321H271.332H271.343H271.354H271.365H271.376H271.387H271.398H271.409H271.42H271.431H271.442H271.453H271.464H271.475H271.487H271.498H271.509H271.52H271.531H271.542H271.553H271.564H271.575H271.586H271.597H271.608H271.619H271.63H271.641H271.652H271.663H271.674H271.685H271.696H271.707H271.719H271.73H271.741H271.752H271.763H271.774H271.785H271.796H271.807H271.818H271.829H271.84H271.851H271.862H271.873H271.884H271.895H271.906H271.917H271.928H271.94H271.951H271.962H271.973H271.984H271.995H272.006H272.017H272.028H272.039H272.05H272.061H272.072H272.083H272.094H272.105H272.116H272.127H272.138H272.149H272.161H272.172H272.183H272.194H272.205H272.216H272.227H272.238H272.249H272.26H272.271H272.282H272.293H272.304H272.315H272.326H272.337H272.348H272.359H272.37H272.381H272.393H272.404H272.415H272.426H272.437H272.448H272.459H272.47H272.481H272.492H272.503H272.514H272.525H272.536H272.547H272.558H272.569H272.58H272.591H272.602H272.614H272.625H272.636H272.647H272.658H272.669H272.68H272.691H272.702H272.713H272.724H272.735H272.746H272.757H272.768H272.779H272.79H272.801H272.812H272.823H272.835H272.846H272.857H272.868H272.879H272.89H272.901H272.912H272.923H272.934H272.945H272.956H272.967H272.978H272.989H273H273.011H273.022H273.033H273.044H273.056H273.067H273.078H273.089H273.1H273.111H273.122H273.133H273.144H273.155H273.166H273.177H273.188H273.199H273.21H273.221H273.232H273.243H273.254H273.266H273.277H273.288H273.299H273.31H273.321H273.332H273.343H273.354H273.365H273.376H273.387H273.398H273.409H273.42H273.431H273.442H273.453H273.464H273.475H273.487H273.498H273.509H273.52H273.531H273.542H273.553H273.564H273.575H273.586H273.597H273.608H273.619H273.63H273.641H273.652H273.663H273.674H273.685H273.697H273.708H273.719H273.73H273.741H273.752H273.763H273.774H273.785H273.796H273.807H273.818H273.829H273.84H273.851H273.862H273.873H273.884H273.895H273.907H273.918H273.929H273.94H273.951H273.962H273.973H273.984H273.995H274.006H274.017H274.028H274.039H274.05H274.061H274.072H274.083H274.094H274.105H274.117H274.128H274.139H274.15H274.161H274.172H274.183H274.194H274.205H274.216H274.227H274.238H274.249H274.26H274.271H274.282H274.293H274.304H274.316H274.327H274.338H274.349H274.36H274.371H274.382H274.393H274.404H274.415H274.426H274.437H274.448H274.459H274.47H274.481H274.485C274.56 366.486 274.63 366.469 274.705 366.451C274.768 366.435 274.835 366.419 274.912 366.401C275.085 366.362 275.282 366.323 275.492 366.314C279.235 366.153 282.915 365.548 286.549 364.625C312.787 357.962 331.559 335.407 333.281 308.122C333.644 302.376 333.211 296.671 331.927 291.054C329.155 278.937 323.375 268.486 314.38 259.919C302.956 249.038 289.262 243.419 273.531 242.725C268.283 242.494 263.083 243.039 257.949 244.215C246.27 246.887 236.152 252.431 227.751 260.954C216.884 271.977 211.019 285.324 209.919 300.758C209.48 306.915 210.029 313.022 211.482 319.037C215.891 337.283 228.601 353.525 247.294 361.462ZM247.294 361.462L247.099 361.922" stroke="white"/>
<path d="M317.522 239.789C324.121 242.591 330.991 244.26 338.156 244.641H338.158C338.365 244.653 338.561 244.692 338.732 244.73C338.803 244.746 338.865 244.761 338.924 244.775C339.007 244.795 339.083 244.813 339.162 244.829H339.173H339.184H339.195H339.206H339.217H339.228H339.239H339.25H339.261H339.272H339.283H339.294H339.305H339.316H339.327H339.339H339.35H339.361H339.372H339.383H339.394H339.405H339.416H339.427H339.438H339.449H339.46H339.471H339.482H339.493H339.504H339.515H339.526H339.537H339.549H339.56H339.571H339.582H339.593H339.604H339.615H339.626H339.637H339.648H339.659H339.67H339.681H339.692H339.703H339.714H339.725H339.736H339.748H339.759H339.77H339.781H339.792H339.803H339.814H339.825H339.836H339.847H339.858H339.869H339.88H339.891H339.902H339.913H339.924H339.935H339.946H339.958H339.969H339.98H339.991H340.002H340.013H340.024H340.035H340.046H340.057H340.068H340.079H340.09H340.101H340.112H340.123H340.134H340.145H340.156H340.167H340.179H340.19H340.201H340.212H340.223H340.234H340.245H340.256H340.267H340.278H340.289H340.3H340.311H340.322H340.333H340.344H340.355H340.366H340.377H340.389H340.4H340.411H340.422H340.433H340.444H340.455H340.466H340.477H340.488H340.499H340.51H340.521H340.532H340.543H340.554H340.565H340.576H340.587H340.598H340.61H340.621H340.632H340.643H340.654H340.665H340.676H340.687H340.698H340.709H340.72H340.731H340.742H340.753H340.764H340.775H340.786H340.797H340.808H340.819H340.831H340.842H340.853H340.864H340.875H340.886H340.897H340.908H340.919H340.93H340.941H340.952H340.963H340.974H340.985H340.996H341.007H341.018H341.029H341.04H341.052H341.063H341.074H341.085H341.096H341.107H341.118H341.129H341.14H341.151H341.162H341.173H341.184H341.195H341.206H341.217H341.228H341.239H341.25H341.261H341.273H341.284H341.295H341.306H341.317H341.328H341.339H341.35H341.361H341.372H341.383H341.394H341.405H341.416H341.427H341.438H341.449H341.46H341.471H341.482H341.494H341.505H341.516H341.527H341.538H341.549H341.56H341.571H341.582H341.593H341.604H341.615H341.626H341.637H341.648H341.659H341.67H341.681H341.692H341.703H341.715H341.726H341.737H341.748H341.759H341.77H341.781H341.792H341.803H341.814H341.825H341.836H341.847H341.858H341.869H341.88H341.891H341.902H341.913H341.924H341.935H341.947H341.958H341.969H341.98H341.991H342.002H342.013H342.024H342.035H342.046H342.057H342.068H342.079H342.09H342.101H342.112H342.123H342.134H342.145H342.156H342.168H342.179H342.19H342.201H342.212H342.223H342.234H342.245H342.256H342.267H342.278H342.289H342.3H342.311H342.322H342.333H342.344H342.355H342.366H342.377H342.389H342.4H342.411H342.422H342.433H342.444H342.455H342.466H342.477H342.488H342.499H342.51H342.521H342.532H342.543H342.554H342.565H342.576H342.587H342.598H342.609H342.621H342.632H342.643H342.654H342.665H342.676H342.687H342.698H342.709H342.72H342.731H342.742H342.753H342.764H342.775H342.786H342.797H342.808H342.819H342.83H342.842H342.853H342.864H342.875H342.886H342.897H342.908H342.919H342.93H342.941H342.952H342.963H342.974H342.985H342.996H343.007H343.018H343.029H343.04H343.051H343.063H343.074H343.085H343.096H343.107H343.118H343.129H343.14H343.151H343.162H343.173H343.184H343.195H343.206H343.217H343.228H343.239H343.25H343.261H343.272H343.284H343.295H343.306H343.317H343.328H343.339H343.35H343.361H343.372H343.383H343.394H343.405H343.416H343.427H343.438H343.449H343.46H343.471H343.482H343.494H343.505H343.516H343.527H343.538H343.549H343.56H343.571H343.582H343.593H343.604H343.615H343.626H343.637H343.648H343.659H343.67H343.681H343.692H343.703H343.715H343.726H343.737H343.748H343.759H343.77H343.781H343.792H343.803H343.814H343.825H343.836H343.847H343.858H343.869H343.88H343.891H343.902H343.913H343.925H343.936H343.947H343.958H343.969H343.98H343.991H344.002H344.013H344.024H344.035H344.046H344.057H344.068H344.079H344.09H344.101H344.112H344.123H344.135H344.146H344.157H344.168H344.179H344.19H344.201H344.212H344.223H344.234H344.245H344.256H344.267H344.278H344.289H344.3H344.311H344.322H344.333H344.345H344.356H344.367H344.378H344.389H344.4H344.411H344.422H344.433H344.444H344.455H344.466H344.477H344.488H344.499H344.51H344.521H344.532H344.544H344.555H344.566H344.577H344.588H344.599H344.61H344.621H344.632H344.643H344.654H344.665H344.676H344.687H344.698H344.709H344.713C344.788 244.813 344.858 244.796 344.933 244.778C344.996 244.762 345.063 244.746 345.14 244.728C345.313 244.689 345.51 244.65 345.72 244.641C349.463 244.48 353.143 243.875 356.777 242.952C383.015 236.289 401.787 213.734 403.509 186.449C403.872 180.703 403.439 174.998 402.155 169.381C399.383 157.264 393.603 146.813 384.608 138.246C373.184 127.365 359.49 121.746 343.759 121.052C338.511 120.821 333.311 121.366 328.177 122.542C316.498 125.214 306.38 130.758 297.979 139.281C287.112 150.304 281.247 163.651 280.147 179.085C279.708 185.242 280.257 191.349 281.71 197.364C286.119 215.61 298.829 231.852 317.522 239.789ZM317.522 239.789L317.327 240.249" stroke="white"/>
<path d="M247.522 118.789C254.121 121.591 260.991 123.26 268.156 123.641H268.158C268.365 123.653 268.561 123.692 268.732 123.73C268.803 123.746 268.865 123.761 268.924 123.775C269.007 123.795 269.083 123.813 269.162 123.829H269.173H269.184H269.195H269.206H269.217H269.228H269.239H269.25H269.261H269.272H269.283H269.294H269.305H269.316H269.327H269.339H269.35H269.361H269.372H269.383H269.394H269.405H269.416H269.427H269.438H269.449H269.46H269.471H269.482H269.493H269.504H269.515H269.526H269.537H269.549H269.56H269.571H269.582H269.593H269.604H269.615H269.626H269.637H269.648H269.659H269.67H269.681H269.692H269.703H269.714H269.725H269.736H269.748H269.759H269.77H269.781H269.792H269.803H269.814H269.825H269.836H269.847H269.858H269.869H269.88H269.891H269.902H269.913H269.924H269.935H269.946H269.958H269.969H269.98H269.991H270.002H270.013H270.024H270.035H270.046H270.057H270.068H270.079H270.09H270.101H270.112H270.123H270.134H270.145H270.156H270.167H270.179H270.19H270.201H270.212H270.223H270.234H270.245H270.256H270.267H270.278H270.289H270.3H270.311H270.322H270.333H270.344H270.355H270.366H270.377H270.389H270.4H270.411H270.422H270.433H270.444H270.455H270.466H270.477H270.488H270.499H270.51H270.521H270.532H270.543H270.554H270.565H270.576H270.587H270.598H270.61H270.621H270.632H270.643H270.654H270.665H270.676H270.687H270.698H270.709H270.72H270.731H270.742H270.753H270.764H270.775H270.786H270.797H270.808H270.819H270.831H270.842H270.853H270.864H270.875H270.886H270.897H270.908H270.919H270.93H270.941H270.952H270.963H270.974H270.985H270.996H271.007H271.018H271.029H271.04H271.052H271.063H271.074H271.085H271.096H271.107H271.118H271.129H271.14H271.151H271.162H271.173H271.184H271.195H271.206H271.217H271.228H271.239H271.25H271.261H271.273H271.284H271.295H271.306H271.317H271.328H271.339H271.35H271.361H271.372H271.383H271.394H271.405H271.416H271.427H271.438H271.449H271.46H271.471H271.482H271.494H271.505H271.516H271.527H271.538H271.549H271.56H271.571H271.582H271.593H271.604H271.615H271.626H271.637H271.648H271.659H271.67H271.681H271.692H271.703H271.715H271.726H271.737H271.748H271.759H271.77H271.781H271.792H271.803H271.814H271.825H271.836H271.847H271.858H271.869H271.88H271.891H271.902H271.913H271.924H271.935H271.947H271.958H271.969H271.98H271.991H272.002H272.013H272.024H272.035H272.046H272.057H272.068H272.079H272.09H272.101H272.112H272.123H272.134H272.145H272.156H272.168H272.179H272.19H272.201H272.212H272.223H272.234H272.245H272.256H272.267H272.278H272.289H272.3H272.311H272.322H272.333H272.344H272.355H272.366H272.377H272.389H272.4H272.411H272.422H272.433H272.444H272.455H272.466H272.477H272.488H272.499H272.51H272.521H272.532H272.543H272.554H272.565H272.576H272.587H272.598H272.609H272.621H272.632H272.643H272.654H272.665H272.676H272.687H272.698H272.709H272.72H272.731H272.742H272.753H272.764H272.775H272.786H272.797H272.808H272.819H272.83H272.842H272.853H272.864H272.875H272.886H272.897H272.908H272.919H272.93H272.941H272.952H272.963H272.974H272.985H272.996H273.007H273.018H273.029H273.04H273.051H273.063H273.074H273.085H273.096H273.107H273.118H273.129H273.14H273.151H273.162H273.173H273.184H273.195H273.206H273.217H273.228H273.239H273.25H273.261H273.272H273.284H273.295H273.306H273.317H273.328H273.339H273.35H273.361H273.372H273.383H273.394H273.405H273.416H273.427H273.438H273.449H273.46H273.471H273.482H273.494H273.505H273.516H273.527H273.538H273.549H273.56H273.571H273.582H273.593H273.604H273.615H273.626H273.637H273.648H273.659H273.67H273.681H273.692H273.703H273.715H273.726H273.737H273.748H273.759H273.77H273.781H273.792H273.803H273.814H273.825H273.836H273.847H273.858H273.869H273.88H273.891H273.902H273.913H273.925H273.936H273.947H273.958H273.969H273.98H273.991H274.002H274.013H274.024H274.035H274.046H274.057H274.068H274.079H274.09H274.101H274.112H274.123H274.135H274.146H274.157H274.168H274.179H274.19H274.201H274.212H274.223H274.234H274.245H274.256H274.267H274.278H274.289H274.3H274.311H274.322H274.333H274.345H274.356H274.367H274.378H274.389H274.4H274.411H274.422H274.433H274.444H274.455H274.466H274.477H274.488H274.499H274.51H274.521H274.532H274.544H274.555H274.566H274.577H274.588H274.599H274.61H274.621H274.632H274.643H274.654H274.665H274.676H274.687H274.698H274.709H274.713C274.788 123.813 274.858 123.796 274.933 123.778C274.996 123.762 275.063 123.746 275.14 123.728C275.313 123.689 275.51 123.65 275.72 123.641C279.463 123.48 283.143 122.875 286.777 121.952C313.015 115.289 331.787 92.7341 333.509 65.4491C333.872 59.7031 333.439 53.998 332.155 48.381C329.383 36.264 323.603 25.8131 314.608 17.2461C303.184 6.36506 289.49 0.746062 273.759 0.0520621C268.511 -0.178938 263.311 0.366052 258.177 1.54205C246.498 4.21405 236.38 9.75807 227.979 18.2811C217.112 29.3041 211.247 42.6511 210.147 58.0851C209.708 64.2421 210.257 70.349 211.71 76.364C216.119 94.61 228.829 110.852 247.522 118.789ZM247.522 118.789L247.327 119.249" stroke="white"/>
<path d="M88.1393 260.913C77.1396 272.107 71.2102 285.597 70.2692 301.267C69.9488 306.596 70.3719 311.889 71.5156 317.111C75.1397 333.656 83.9015 346.725 97.9718 356.146C106.952 362.161 116.908 365.487 127.688 366.213C133.459 366.6 139.199 366.232 144.867 364.984C157.317 362.248 168.04 356.396 176.779 347.119C188.002 335.203 193.579 320.966 193.79 304.603V304.599C193.825 300.378 193.393 296.213 192.523 292.102C189.641 278.505 183.1 267.012 172.616 257.88M88.1393 260.913L87.7827 260.563M88.1393 260.913C96.3958 252.509 106.361 247.07 117.8 244.305C123.618 242.9 129.533 242.365 135.502 242.732C149.569 243.601 161.988 248.62 172.616 257.88M172.616 257.88L172.945 257.503" stroke="white"/>
<defs>
<linearGradient id="paint0_linear_364_28" x1="132.091" y1="124.876" x2="132.091" y2="0" gradientUnits="userSpaceOnUse">
<stop stop-color="#FFEF6C"/>
<stop offset="1" stop-color="#C3C2C2"/>
</linearGradient>
</defs>
</svg>
