<svg xmlns="http://www.w3.org/2000/svg" viewBox="0 0 398 298.5">
    <path fill="#000000"
          d="M142,166.82C38.79,92,30.93,85.35,7.16,66.77A18.7,18.7,0,0,1,0,52.08V37.31A37.32,37.32,0,0,1,37.31,0H360.69A37.32,37.32,0,0,1,398,37.31V52.08a18.58,18.58,0,0,1-7.16,14.69C367.07,85.43,359.21,92,256.05,166.82,243,176.3,217,199.31,199,199,181,199.31,155,176.3,142,166.82ZM398,102.22v159a37.32,37.32,0,0,1-37.31,37.31H37.31A37.32,37.32,0,0,1,0,261.19V102.3a4.66,4.66,0,0,1,7.55-3.66C25,112.16,48,129.35,127.32,187c16.41,12,44.08,37.15,71.68,37,27.76.22,56-25.51,71.74-37C350,129.35,373,112.1,390.45,98.56A4.69,4.69,0,0,1,398,102.22Z"/>
</svg>
